<svg xmlns="http://www.w3.org/2000/svg" viewBox="0 0 64 64" width="64" height="64" role="img" aria-label="梨">
  <path d="M32 15c6 0 10 6 10 11 0 4-2 6-1 9 2 6 8 9 8 15 0 6-7 10-17 10s-17-4-17-10c0-6 6-9 8-15 1-3-1-5-1-9 0-5 4-11 10-11z" fill="#CBD46E" stroke="#8A9430" stroke-width="2" stroke-linejoin="round" />
  <path d="M32 15v-7" stroke="#7B5A3A" stroke-width="2.5" stroke-linecap="round" />
  <path d="M33 11c4-5 10-6 14-4-2 5-8 8-14 6z" fill="#8CBF5A" stroke="#4F7530" stroke-width="2" stroke-linejoin="round" />
  <ellipse cx="25" cy="37" rx="5" ry="8" transform="rotate(-14 25 37)" fill="#fff" opacity=".3" />
</svg>
